/* XPM */
static char *a079fee4e99e4705dcb6aebb573292ecJey0aWgNFrCfMJlf[] = {
/* columns rows colors chars-per-pixel */
"19 17 4 1 ",
"  c black",
". c white",
"X c #F8A480",
"o c None",
/* pixels */
"ooXXXXXXXXXXXXXXXoo",
"XXXXXXXXXXXXXXXXXXo",
"XXXXXXXXXXXXXXXXXXo",
"XXXXXXXXXXXXXXXXXXX",
"XXXoooooooooooooXXX",
"XXXoooooooooooooXXX",
"XXXoooooooooooooXXX",
"XXXoooooooooooooXXX",
"XXXoooooooooooooXXX",
"XXXoooooooooooooXXX",
"XXXoooooooooooooXXX",
"XXXoooooooooooooXXX",
"XXXoooooooooooooXXX",
"XXXXXXXXXXXXXXXXXXX",
"XXXXXXXXXXXXXXXXXXo",
"XXXXXXXXXXXXXXXXXXo",
"ooXXXXXXXXXXXXXXXoo"
};
