/* XPM */
static char * C:\Users\etuls\Desktop\Texture\ui\digits\xpm_new\1_xpm[] = {
"8 17 12 1",
" 	c None",
".	c #000000",
"+	c #FFFFFF",
"@	c #FFFEAC",
"#	c #FBF8A9",
"$	c #EFE89E",
"%	c #E3D894",
"&	c #D6C788",
"*	c #C8B77E",
"=	c #B9A672",
"-	c #AA9567",
";	c #99845D",
"  $&&&&#",
" $-;;;;&",
" &;;;;;&",
" &;-=-;&",
" *;* *;&",
"@%&# &;&",
"     &;&",
"     &;&",
"     &;&",
"     &;&",
"     &;&",
"     &;&",
"     &;&",
"     &;&",
"     &;&",
"     &;&",
"     #&#"};
