/* XPM */
static char *f24674fd778a43ebd3d76adccb5e917fowjfTGUrTvgujO2C[] = {
/* columns rows colors chars-per-pixel */
"8 17 4 1 ",
"  c black",
". c white",
"X c #F8A480",
"o c None",
/* pixels */
"ooXXXXXX",
"oXXXXXXX",
"oXXXXXXX",
"oXXXXXXX",
"oXXXoXXX",
"XXXXoXXX",
"oooooXXX",
"oooooXXX",
"oooooXXX",
"oooooXXX",
"oooooXXX",
"oooooXXX",
"oooooXXX",
"oooooXXX",
"oooooXXX",
"oooooXXX",
"oooooXXX"
};
