/* XPM */
static char *_7cbdf1d2b394c69f60a0dbaa06b41edKxaNgwddES85Yi4m[] = {
/* columns rows colors chars-per-pixel */
"20 17 4 1 ",
"  c black",
". c white",
"X c #F8A480",
"o c None",
/* pixels */
"XXXoooooooooooXXXXoo",
"XXXoooooooooooXXXXoo",
"XXXoooooooooooXXXXoo",
"XXXoooooooooooXXXXoo",
"XXXoooooooooooXXXXoo",
"XXXoooooooooooXXXXoo",
"XXXoooooooooooXXXXoo",
"XXXoooooooooooXXXXoo",
"XXXoooooooooooXXXXoo",
"XXXXXXXXXXXXXXXXXXXX",
"XXXXXXXXXXXXXXXXXXXX",
"XXXXXXXXXXXXXXXXXXXX",
"oXXXXXXXXXXXXXXXXXXX",
"ooooooooooooooXXXXoo",
"ooooooooooooooXXXXoo",
"ooooooooooooooXXXXoo",
"ooooooooooooooXXXXoo"
};
