/* XPM */
static char *f691ea29d64a4fcad75108c670d62caeUBr6BXbZziO61mVM[] = {
/* columns rows colors chars-per-pixel */
"18 17 4 1 ",
"  c black",
". c white",
"X c #F8A480",
"o c None",
/* pixels */
"XXXXXXXXXXXXXXXXXX",
"XXXXXXXXXXXXXXXXXX",
"XXXXXXXXXXXXXXXXXX",
"XXXXXXXXXXXXXXXXXX",
"XXXXoooooooooooooo",
"XXXXoooooooooooooo",
"XXXXoooooooooooooo",
"XXXXXXXXXXXXXXXXXo",
"XXXXXXXXXXXXXXXXXX",
"XXXXXXXXXXXXXXXXXX",
"XXXXXXXXXXXXXXXXXX",
"oooooooooooooooXXX",
"oooooooooooooooXXX",
"XXXXXXXXXXXXXXXXXX",
"XXXXXXXXXXXXXXXXXX",
"XXXXXXXXXXXXXXXXXX",
"XXXXXXXXXXXXXXXXXo"
};
