/* XPM */
static char *_7a8fce186b444659c6d5ba7f105a4ccFjKkq1RlYB3teLPi[] = {
/* columns rows colors chars-per-pixel */
"18 17 4 1 ",
"  c black",
". c white",
"X c #F8A480",
"o c None",
/* pixels */
"oXXXXXXXXXXXXXXXXo",
"XXXXXXXXXXXXXXXXXX",
"XXXXXXXXXXXXXXXXXX",
"XXXXXXXXXXXXXXXXXX",
"XXXooooooooooooXXX",
"XXXooooooooooooXXX",
"XXXooooooooooooXXX",
"XXXXXXXXXXXXXXXXXX",
"XXXXXXXXXXXXXXXXXX",
"XXXXXXXXXXXXXXXXXX",
"oXXXXXXXXXXXXXXXXX",
"oooooooooooooooXXX",
"oooooooooooooooXXX",
"XXXXXXXXXXXXXXXXXX",
"XXXXXXXXXXXXXXXXXX",
"XXXXXXXXXXXXXXXXXX",
"XXXXXXXXXXXXXXXXXo"
};
