/* XPM */
static char * C:\Users\etuls\Desktop\Texture\ui\digits\xpm_new\9_xpm[] = {
"18 17 9 1",
" 	c None",
".	c #000000",
"+	c #FFFFFF",
"@	c #FBF8A9",
"#	c #EFE89E",
"$	c #D6C788",
"%	c #C8B77E",
"&	c #AA9567",
"*	c #99845D",
" #$$$$$$$$$$$$$$# ",
"#&**************&#",
"$****************$",
"$*&%$$$$$$$$$$%&*$",
"$*%            %*$",
"$*$            $*$",
"$*%            %*$",
"$*&%$$$$$$$$$$%&*$",
"$****************$",
"#&***************$",
" #$$$$$$$$$$$$%&*$",
"               %*$",
"               %*$",
"@$$$$$$$$$$$$$%&*$",
"$****************$",
"$***************&#",
"@$$$$$$$$$$$$$$$# "};
