/* XPM */
static char * C:\Users\admin\Desktop\pics\ui\loading_bar_xpm[] = {
"61 39 280 2",
"  	c None",
". 	c #D8AA6F",
"+ 	c #BCA36B",
"@ 	c #D6AA72",
"# 	c #E1AC73",
"$ 	c #DEAC70",
"% 	c #D9AD70",
"& 	c #DAAD72",
"* 	c #DDAB74",
"= 	c #DEAC74",
"- 	c #DEAE73",
"; 	c #DBAA70",
"> 	c #DCAC72",
", 	c #DBAB71",
"' 	c #E0AC73",
") 	c #DCAC71",
"! 	c #DBAD6E",
"~ 	c #DBAC71",
"{ 	c #C7A573",
"] 	c #929765",
"^ 	c #CEA870",
"/ 	c #E0AD71",
"( 	c #E5AF71",
"_ 	c #E2AF73",
": 	c #E0AF74",
"< 	c #E3B074",
"[ 	c #E6AF73",
"} 	c #E2B074",
"| 	c #E5B074",
"1 	c #E5AF74",
"2 	c #E3AF74",
"3 	c #E3AE73",
"4 	c #E3AE72",
"5 	c #E0B073",
"6 	c #D1AA72",
"7 	c #B29D6D",
"8 	c #C3A76F",
"9 	c #DBAD71",
"0 	c #E6AF71",
"a 	c #E2AC71",
"b 	c #E5AF73",
"c 	c #E4AF72",
"d 	c #E7AF74",
"e 	c #E3AF73",
"f 	c #E3AF71",
"g 	c #D9AB6F",
"h 	c #9D9365",
"i 	c #CAA46F",
"j 	c #DEAA6F",
"k 	c #E5AF70",
"l 	c #E5AD73",
"m 	c #E6AA72",
"n 	c #E2AD70",
"o 	c #E0AF73",
"p 	c #E7AD74",
"q 	c #E5AE71",
"r 	c #E3AF72",
"s 	c #E6AC73",
"t 	c #E5AE70",
"u 	c #E3AF6F",
"v 	c #D4AB73",
"w 	c #8C8864",
"x 	c #C4A16D",
"y 	c #E4AF71",
"z 	c #E7AE71",
"A 	c #E6AD73",
"B 	c #E4B074",
"C 	c #E1AF74",
"D 	c #E6AD74",
"E 	c #E6B073",
"F 	c #E7B072",
"G 	c #E4AF74",
"H 	c #E6AF74",
"I 	c #E5B073",
"J 	c #DFAA73",
"K 	c #B9A06C",
"L 	c #B7A470",
"M 	c #D3AA71",
"N 	c #E4AE70",
"O 	c #E2AF72",
"P 	c #E5AC74",
"Q 	c #E6B071",
"R 	c #E2B072",
"S 	c #E2AF74",
"T 	c #E4AD74",
"U 	c #E2AC73",
"V 	c #DCAA6E",
"W 	c #959262",
"X 	c #D2AB72",
"Y 	c #D8AF71",
"Z 	c #DCAF71",
"` 	c #E3AD74",
" .	c #E6AC74",
"..	c #E3B073",
"+.	c #E6B074",
"@.	c #E7B074",
"#.	c #E7AF73",
"$.	c #E6AF72",
"%.	c #E4AD73",
"&.	c #E1AC74",
"*.	c #E1AF73",
"=.	c #E4AB6F",
"-.	c #D6AC71",
";.	c #908960",
">.	c #B89C68",
",.	c #E2B073",
"'.	c #E4B072",
").	c #E4AC74",
"!.	c #E7AF71",
"~.	c #E6AC70",
"{.	c #E1B074",
"].	c #E4AF73",
"^.	c #E3AE74",
"/.	c #C5A36E",
"(.	c #AB9A6B",
"_.	c #CBA871",
":.	c #E4AE71",
"<.	c #E6AE73",
"[.	c #E2AF70",
"}.	c #DCAB71",
"|.	c #A59866",
"1.	c #C5A770",
"2.	c #D8AE71",
"3.	c #E4B073",
"4.	c #E3B072",
"5.	c #CDA870",
"6.	c #C2A26C",
"7.	c #E5AE74",
"8.	c #E6AE74",
"9.	c #CDA571",
"0.	c #CDA36F",
"a.	c #E7AE74",
"b.	c #E5B072",
"c.	c #E7AC74",
"d.	c #DDAC73",
"e.	c #BCA06D",
"f.	c #B49D6D",
"g.	c #D8AB74",
"h.	c #E5AE72",
"i.	c #E4AE74",
"j.	c #E1B071",
"k.	c #CEA56F",
"l.	c #AF9868",
"m.	c #C6A873",
"n.	c #E6AD71",
"o.	c #E4AF70",
"p.	c #E2B071",
"q.	c #E6AF70",
"r.	c #E1AF71",
"s.	c #E1AE72",
"t.	c #D4A66F",
"u.	c #CCA870",
"v.	c #E2AF71",
"w.	c #E4AD72",
"x.	c #E6AE72",
"y.	c #D6AB72",
"z.	c #919466",
"A.	c #CFAB73",
"B.	c #E1B073",
"C.	c #E7AB74",
"D.	c #E3AB70",
"E.	c #E4AD70",
"F.	c #CDA970",
"G.	c #AE9E6C",
"H.	c #C0A574",
"I.	c #E1AA74",
"J.	c #E4AC72",
"K.	c #E1B072",
"L.	c #E7AD72",
"M.	c #E0B074",
"N.	c #E5AE73",
"O.	c #C9A570",
"P.	c #909268",
"Q.	c #DBA872",
"R.	c #E3AC72",
"S.	c #E2AF6F",
"T.	c #E3B070",
"U.	c #E0AD73",
"V.	c #8C9066",
"W.	c #D2A86D",
"X.	c #E5AB71",
"Y.	c #D9AB72",
"Z.	c #B8A06C",
"`.	c #B1A06D",
" +	c #D9A96E",
".+	c #E7AC71",
"++	c #E5AF72",
"@+	c #D0A56D",
"#+	c #8C8D68",
"$+	c #D8AC71",
"%+	c #E3AC73",
"&+	c #E4AE72",
"*+	c #E0AD70",
"=+	c #D3A570",
"-+	c #D7A66E",
";+	c #E1AF72",
">+	c #E2AC70",
",+	c #CAA56E",
"'+	c #B89A68",
")+	c #D6A86E",
"!+	c #DAA86F",
"~+	c #A39C6A",
"{+	c #CDA56F",
"]+	c #DFAC73",
"^+	c #E2AD72",
"/+	c #CBA76C",
"(+	c #D8A872",
"_+	c #E5AF6F",
":+	c #CAA06D",
"<+	c #B99E6A",
"[+	c #D3A96F",
"}+	c #E6B072",
"|+	c #E6AD72",
"1+	c #E3AB74",
"2+	c #BEA46F",
"3+	c #AFA068",
"4+	c #DBAD70",
"5+	c #E2AD73",
"6+	c #DFAF73",
"7+	c #E6AE6F",
"8+	c #C6A670",
"9+	c #9F966A",
"0+	c #CBA970",
"a+	c #E5AC71",
"b+	c #E0AC74",
"c+	c #E6AB70",
"d+	c #E3AC74",
"e+	c #B3996C",
"f+	c #D9AB71",
"g+	c #DEAB72",
"h+	c #E7B073",
"i+	c #E1AF70",
"j+	c #E5AC72",
"k+	c #E0AB74",
"l+	c #A29665",
"m+	c #E2AE72",
"n+	c #E2AC72",
"o+	c #E5AC70",
"p+	c #CEA871",
"q+	c #B59E6A",
"r+	c #E2AF6E",
"s+	c #E6AE71",
"t+	c #E0AF72",
"u+	c #E2AE73",
"v+	c #B89C6A",
"w+	c #DAAE70",
"x+	c #DDAF74",
"y+	c #E7AE73",
"z+	c #DCAD73",
"A+	c #D7AB72",
"B+	c #A49767",
"C+	c #D8AD73",
"D+	c #E5AC73",
"E+	c #DEAF74",
"F+	c #D8AD72",
"G+	c #AF9C6A",
"H+	c #DEAA71",
"I+	c #E2AE74",
"J+	c #DEB072",
"K+	c #E3AD71",
"L+	c #DCAF72",
"M+	c #C8A66F",
"N+	c #D1A873",
"O+	c #E2AC74",
"P+	c #E7AF72",
"Q+	c #DEAC71",
"R+	c #BDA06A",
"S+	c #B8986A",
"T+	c #B79C68",
"U+	c #B69C69",
"V+	c #B69A69",
"W+	c #B59A69",
"X+	c #B59B69",
"Y+	c #B69B6A",
"Z+	c #B69B69",
"`+	c #B59B6A",
" @	c #B59C6A",
".@	c #B69B68",
"+@	c #B99A68",
"@@	c #A89466",
"                                                                                                                          ",
"                                                                  .                                                       ",
"    + @ # $ % & * = - ; > > > > > > > > > > > > > > > > > , ' ) ! ~ {                                                     ",
"    ] ^ / ( _ : < [ [ } | | | | | | | | | | | | | | | | | 1 2 3 4 5 6 7                                                   ",
"      8 9 0 a ' b ( c 1 d d d d d d d d d d d d d d d d d d b b 1 e f g h                                                 ",
"        i j k l m n o p d d d d d d d d d d d d d d d d d d q r 1 s t u v                                                 ",
"        w x y z A B C D E E E E E E E E E E E E E E E E E F f _ G H I [ J K                                               ",
"          L M N O 2 P [ | | | | | | | | | | | | | | | | | Q R S d H G T U V W                                             ",
"            X Y Z `  ...+.@.@.@.@.@.@.@.@.@.@.@.@.@.@.@.@.[ e 1 #.$.%.&.*.=.-.                                            ",
"            ;.>.,.D  .'.d d d d d d d d d d d d d d d d d < ).P E !.~._ {.].^./.                                          ",
"              (._.c :.<.].#.#.c R O b d d @.@.@.@.@.@.@.@.+.H d @.#.#.+.| | [.}.|.                                        ",
"                1.2.c H ,.G d b 3.r b H H @.@.@.@.@.@.@.@.@.@.@.@.@.@.@.@.@.4.2 5.                                        ",
"                  6.<.r } S 2 7.H d [ 3.| @.@.@.@.@.@.@.@.@.@.@.@.@.@.@.@.@.8.S ` 9.                                      ",
"                    0.r 7.2 } ^. .a.[ b.E @.@.@.@.@.@.@.@.@.@.@.@.@.@.@.@.d c.].4 d.e.                                    ",
"                    f.g.s h.O _ i.H d $.$.@.@.@.@.@.@.@.@.@.@.@.@.@.@.@.@.@.a.z j._ k.l.                                  ",
"                      m.T n.o.p.} G d [ [ @.@.@.@.@.@.@.@.@.@.@.@.@.@.@.@.@.B q.r.s.8.t.                                  ",
"                        u.*.n.v.5 i.p 8.E @.@.@.@.@.@.@.@.@.@.@.@.@.@.@.@.@...c w.e x.].y.                                ",
"                        z.A.).f B.T C.^.} @.@.@.@.@.@.@.@.@.@.@.@.@.@.@.@.@.$.S G s.D.E.F.G.                              ",
"                          H.I.J._ i. .O K.@.@.@.@.@.@.@.@.@.@.@.@.@.@.@.@.d L.2 M.c y q N.O.P.                            ",
"                            Q.R.r S _ S.T.@.@.@.@.@.@.@.@.@.@.@.@.@.@.@.@.@.@.@.+.@.H H H G U.                            ",
"                            V.W.X.%.1 x.!.@.@.@.@.@.@.@.@.@.@.@.@.@.@.@.@.@.@.@.@.@.H H H d Y.Z.                          ",
"                              `. +.+a.a.a.@.@.@.@.@.@.@.@.@.@.@.@.@.@.@.@.@.@.@.@.@.H H H H ++@+#+                        ",
"                                $+%+&+O 1 @.@.@.@.@.@.@.@.@.@.@.@.@.@.@.@.@.@.@.@.@.@.H H H ++*+=+                        ",
"                                  -+k K.S H H H @.@.@.@.@.@.@.@.@.@.@.@.@.@.@.@.@.@.@.@.@.@.< ;+>+,+                      ",
"                                  '+)+I G H H H H @.@.@.@.@.@.@.@.@.@.@.@.@.@.@.@.@.@.@.@.@.+.B :.!+~+                    ",
"                                    {+]+1 H H H H @.@.@.@.@.@.@.@.@.@.@.@.@.@.@.@.@.@.@.@.@.d 7._ ^+/+                    ",
"                                      (+H H H H H @.@.@.@.@.@.@.@.@.@.@.@.@.@.@.@.@.@.@.@.@.d N.{.,._+:+                  ",
"                                      <+[+}+G H [ ,.}+F H @.@.@.@.@.@.@.@.@.@.@.@.@.@.@.@.@.@.[ S *.|+1+2+                ",
"                                        3+4+e s 5+6+[.7+N.H @.@.@.@.@.@.@.@.@.@.@.@.@.@.@.@.+.b 1 G w.N.8+9+              ",
"                                          0+$.a+b+5+r.c+N.+.@.@.@.@.@.@.@.@.@.@.@.@.@.@.@.@.E ++d | j.'.d+e+              ",
"                                            f+c ).g+b 1 H d @.@.@.@.@.@.@.@.@.@.@.@.@.@.@.@.h+$.h.H O i+j+k+              ",
"                                            l+> m+A 8.C ].d d d d d d d d d d d d d d d d d d ++n+8.[ o.o+N.p+            ",
"                                              q+r+s+P S r E @.@.@.@.@.@.@.@.@.@.@.@.@.@.@.@.d d 8.G G $.++t+u+v+          ",
"                                                w+r.# b *.B @.@.@.@.@.@.@.@.@.@.@.@.@.@.@.@.d p D : x+1 y+e *.z+A+        ",
"                                                B+C+: D+S B +.+.+.+.+.+.+.+.+.+.+.+.+.+.+.+.| G 8.5+E+_ m A : } F+        ",
"                                                  G+H+^.I+2 e e e e e e e e e e e e e e e 2 B.J+r j+K+L+_ D I+^+^+M+      ",
"                                                    N+O+O 3.I I I I I I I I E E E E E E E E I 4.++P+P+..+.d H &+s+Q+R+    ",
"                                                      S+T+U+V+V+V+V+V+V+V+V+W+W+W+W+W+W+W+W+W+W+W+X+Y+Y+Z+X+`+ @.@+@@@    ",
"                                                                                                                          "};
