/* XPM */
static char * C:\Users\etuls\Desktop\Texture\ui\digits\xpm_new\7_xpm[] = {
"17 17 4 1",
" 	c None",
".	c #000000",
"+	c #FFFFFF",
"@	c #99845D",
"@@@@@@@@@@@@@@@@@",
"@@@@@@@@@@@@@@@@@",
"@@@@@@@@@@@@@@@@@",
"@@@@@@@@@@@@@@@@@",
"           @@@@@ ",
"           @@@@  ",
"          @@@@@  ",
"         @@@@@   ",
"        @@@@@    ",
"        @@@@     ",
"       @@@@      ",
"      @@@@@      ",
"     @@@@@       ",
"    @@@@@        ",
"    @@@@         ",
"   @@@@@         ",
"  @@@@@          "};
