/* XPM */
static char *_fc7ab53c7934f17c0f0b6e1f76717a5cPp0CMjdI9kkDYHb[] = {
/* columns rows colors chars-per-pixel */
"19 19 2 1 ",
"  c #FDA500",
". c black",
/* pixels */
"......... .........",
"........   ........",
"........   ........",
"........    .......",
".......     .......",
"......       ......",
"......       ......",
"......        .....",
".....         .....",
"....           ....",
"....           ....",
"....            ...",
"...             ...",
"..               ..",
"..               ..",
"..      ...       .",
".      .....      .",
"    ............   ",
"  ...............  "
};
