/* XPM */
static char *_fb6fa0979b44546ac83be6a1bea1f2ektS3cgdihxmZcA7C[] = {
/* columns rows colors chars-per-pixel */
"19 19 2 1 ",
"  c #FDA500",
". c black",
/* pixels */
"  ...............  ",
"   ............    ",
".      .....      .",
".       ...      ..",
"..               ..",
"..               ..",
"...             ...",
"...            ....",
"....           ....",
"....           ....",
".....         .....",
".....        ......",
"......       ......",
"......       ......",
".......     .......",
".......    ........",
"........   ........",
"........   ........",
"......... ........."
};
