/* XPM */
static char *_d0f76845ebe43d2da5059e38e7404bdoO9glYPz17VScJNQ[] = {
/* columns rows colors chars-per-pixel */
"20 20 2 1 ",
"  c #FDA500",
". c black",
/* pixels */
"............  ......",
"............  ......",
"............   .....",
"............   .....",
"...........    .....",
"...........     ....",
"...........     ....",
"...........     ....",
"..........       ...",
".........        ...",
"........         ...",
"....              ..",
"                  ..",
"                  ..",
"..                 .",
"......             .",
"........           .",
"...........         ",
"..............      ",
".................   "
};
