/* XPM */
static char *e60ef9bc92034eabe6f53fb16a9b76ceJ7FnzO5R8TXodYsS[] = {
/* columns rows colors chars-per-pixel */
"19 19 2 1 ",
"  c #FDA500",
". c black",
/* pixels */
".................  ",
"...............    ",
".............     .",
"...........      ..",
".........        ..",
".......          ..",
".....            ..",
"...             ...",
".              ....",
"               ....",
".              ....",
"....            ...",
".....            ..",
"........         ..",
".........        ..",
"............      .",
".............     .",
"................   ",
".................  "
};
