/* XPM */
static char *_84881f8b6c64f89bb0c1da91f1c31092owwedfC2PKeMInD[] = {
/* columns rows colors chars-per-pixel */
"20 20 2 1 ",
"  c #FDA500",
". c black",
/* pixels */
"   .................",
"      ..............",
"         ...........",
".           ........",
".             ......",
".                 ..",
"..                  ",
"..                  ",
"..              ....",
"...         ........",
"...        .........",
"...       ..........",
"....     ...........",
"....     ...........",
"....     ...........",
".....    ...........",
".....   ............",
".....   ............",
"......  ............",
"......  ............"
};
