/* XPM */
static char *_a54016348194f0ac25fb5be27ac856flaGneGTryJlyENiK[] = {
/* columns rows colors chars-per-pixel */
"20 20 2 1 ",
"  c #FDA500",
". c black",
/* pixels */
".................   ",
"..............      ",
"...........         ",
"........           .",
"......             .",
"..                 .",
"                  ..",
"                  ..",
"....              ..",
"........         ...",
".........        ...",
"..........       ...",
"...........     ....",
"...........     ....",
"...........     ....",
"...........    .....",
"............   .....",
"............   .....",
"............  ......",
"............  ......"
};
