/* XPM */
static char *_ad5cf274bb245c5e820d5fce788edcd5mXI7sI9bJSndxrs[] = {
/* columns rows colors chars-per-pixel */
"20 20 2 1 ",
"  c #FDA500",
". c black",
/* pixels */
"......  ............",
"......  ............",
".....   ............",
".....   ............",
".....    ...........",
"....     ...........",
"....     ...........",
"....     ...........",
"...       ..........",
"...        .........",
"...         ........",
"..              ....",
"..                  ",
"..                  ",
".                 ..",
".             ......",
".           ........",
"         ...........",
"      ..............",
"   ................."
};
