/* XPM */
static char * C:\Users\etuls\Desktop\Texture\ui\crossline_h_xpm[] = {
"40 6 16 1",
" 	c None",
".	c #231908",
"+	c #35270C",
"@	c #C88527",
"#	c #594414",
"$	c #030201",
"%	c #715419",
"&	c #93681E",
"*	c #6E5218",
"=	c #463710",
"-	c #B57B24",
";	c #5C4615",
">	c #050301",
",	c #392B0D",
"'	c #42330F",
")	c #020100",
".+@@@@@@@@@@@@@@@@@@@@@@@@@@@@@@@@@@@@#$",
"%&@@@@@@@@@@@@@@@@@@@@@@@@@@@@@@@@@@@@@*",
"@@@@@@@@@@@@@@@@@@@@@@@@@@@@@@@@@@@@@@@@",
"@@@@@@@@@@@@@@@@@@@@@@@@@@@@@@@@@@@@@@@@",
"=-@@@@@@@@@@@@@@@@@@@@@@@@@@@@@@@@@@@@@;",
">,@@@@@@@@@@@@@@@@@@@@@@@@@@@@@@@@@@@@')"};
