/* XPM */
static char * Z:\crossline_xpm[] = {
"6 40 16 1",
" 	c None",
".	c #020200",
"+	c #7A1700",
"@	c #D21700",
"#	c #651700",
"$	c #010100",
"%	c #621700",
"&	c #451700",
"*	c #301700",
"=	c #A01700",
"-	c #C11700",
";	c #371700",
">	c #181700",
",	c #7D1700",
"'	c #4B1700",
")	c #030300",
".+@@#$",
"%@@@@&",
"@@@@@@",
"@@@@@@",
"@@@@@@",
"@@@@@@",
"@@@@@@",
"@@@@@@",
"@@@@@@",
"@@@@@@",
"@@@@@@",
"@@@@@@",
"@@@@@@",
"@@@@@@",
"@@@@@@",
"@@@@@@",
"@@@@@@",
"@@@@@@",
"@@@@@@",
"@@@@@@",
"@@@@@@",
"@@@@@@",
"@@@@@@",
"@@@@@@",
"@@@@@@",
"@@@@@@",
"@@@@@@",
"@@@@@@",
"@@@@@@",
"@@@@@@",
"@@@@@@",
"@@@@@@",
"@@@@@@",
"@@@@@@",
"@@@@@@",
"@@@@@@",
"@@@@@@",
"@@@@@@",
"*=@@-;",
">,@@')"};
